<svg version="1.1" id="Layer_1" xmlns="http://www.w3.org/2000/svg" xmlns:xlink="http://www.w3.org/1999/xlink" x="0px" y="0px"
	 width="100%" viewBox="0 0 1024 1024" enable-background="new 0 0 1024 1024" xml:space="preserve">
<path fill="#000000" opacity="1.000000" stroke="none" 
	d="
M494.621399,302.444824 
	C499.565094,304.532318 504.103577,306.630768 509.094604,307.473694 
	C511.010468,307.797302 512.814209,307.872009 514.166931,306.298096 
	C516.737427,303.307312 518.676331,304.451172 521.206238,306.671417 
	C538.426086,321.783112 548.545105,340.892883 552.818848,363.127869 
	C557.234314,386.099823 557.022034,408.840088 547.077515,430.625336 
	C534.966370,457.156952 514.124756,474.469147 487.967957,486.053558 
	C484.074646,487.777832 480.092010,489.300323 475.554352,491.160706 
	C479.106873,493.614777 482.635010,493.828552 485.897430,494.692657 
	C502.266510,499.028320 517.995361,504.929321 531.863098,514.814941 
	C553.464783,530.213684 565.991211,551.164429 569.479431,577.571350 
	C572.734985,602.216858 569.966431,626.006409 559.709839,648.707825 
	C548.494873,673.530579 529.942261,691.388306 505.951416,703.767456 
	C485.437134,714.352722 463.466797,719.848083 440.597443,722.438721 
	C424.655731,724.244629 408.701111,724.247742 392.719788,724.243103 
	C348.228485,724.230286 303.737183,724.225159 259.245880,724.210571 
	C252.568848,724.208374 252.588593,724.192200 252.588486,717.787415 
	C252.587112,637.146362 252.578232,556.505310 252.574326,475.864227 
	C252.572632,440.881256 252.882492,405.894714 252.469635,370.916656 
	C252.208084,348.757721 252.486725,326.610779 252.638916,304.459595 
	C252.658646,301.587708 251.323517,298.636749 252.835480,295.310944 
	C256.394073,297.494049 257.206451,301.329834 259.315247,304.106506 
	C261.964661,307.595001 264.782013,308.512207 268.816101,307.065399 
	C286.449615,300.741364 301.310852,290.324463 313.754242,276.460114 
	C316.216766,273.716400 318.663605,272.574677 322.332245,272.592224 
	C351.492584,272.731964 380.655212,272.515808 409.814240,272.758667 
	C427.646729,272.907166 445.245941,275.515686 462.679230,279.220581 
	C465.209930,279.758423 467.385681,280.910522 469.089233,282.847961 
	C476.226746,290.965637 484.913086,297.065735 494.621399,302.444824 
M396.499939,674.679871 
	C415.313629,674.820129 434.144623,674.893860 452.438751,669.601135 
	C475.041504,663.061768 493.301422,650.881897 502.989532,628.543213 
	C509.411896,613.734619 510.920959,598.184509 508.827240,582.150757 
	C505.836853,559.250122 493.816437,542.657654 473.910828,531.689331 
	C458.911255,523.424316 442.414124,519.747681 425.490540,519.471436 
	C390.517487,518.900757 355.531250,519.129700 320.550354,519.057190 
	C314.691956,519.045044 314.249695,519.537598 314.247803,525.825256 
	C314.233459,573.466980 314.285461,621.108887 314.156494,668.750244 
	C314.144409,673.213867 315.306946,674.826233 320.040253,674.785156 
	C345.191864,674.566772 370.346405,674.680542 396.499939,674.679871 
M347.500000,322.041382 
	C338.334808,322.035828 329.167450,322.146790 320.005432,321.973236 
	C315.723541,321.892120 314.169586,323.521423 314.178925,327.858429 
	C314.279877,374.685181 314.284271,421.512421 314.153412,468.339081 
	C314.140991,472.763519 315.676117,474.105957 319.956665,474.074829 
	C348.784363,473.864990 377.613922,473.917419 406.441772,473.721802 
	C419.354858,473.634216 431.904327,471.118195 444.055878,466.807678 
	C464.934021,459.401550 481.378357,446.970581 489.336456,425.468170 
	C494.913910,410.398193 495.085632,394.758118 492.496735,379.168640 
	C488.651825,356.016083 475.941986,339.761169 453.813477,330.970551 
	C439.684387,325.357727 424.995575,322.779053 409.986389,322.399445 
	C389.501007,321.881287 368.996368,322.123871 347.500000,322.041382 
z"/>
<path fill="#000000" opacity="1.000000" stroke="none" 
	d="
M824.273743,432.973572 
	C823.648865,438.716614 823.193054,444.023499 822.376343,449.274170 
	C821.330505,455.997650 818.445740,458.192047 811.525391,458.363037 
	C804.963074,458.525238 798.733948,456.402496 792.283386,455.799255 
	C772.363892,453.936310 753.248352,455.627441 736.931641,468.786194 
	C723.623047,479.519043 715.346802,493.890839 708.240356,509.135773 
	C704.500183,517.159180 702.970825,525.285461 703.008301,534.186218 
	C703.262573,594.667542 703.148560,655.150452 703.155762,715.632812 
	C703.156799,724.248840 703.162170,724.247131 694.332458,724.241577 
	C680.003296,724.232544 665.672485,724.100403 651.346069,724.293762 
	C646.963928,724.352844 645.605896,722.810669 645.609680,718.483337 
	C645.698364,615.679993 645.694092,512.876526 645.605469,410.073151 
	C645.601929,406.000458 646.807312,404.471191 650.992310,404.592072 
	C659.649170,404.842163 668.318420,404.659424 676.982544,404.667114 
	C690.852051,404.679443 695.554871,409.529785 696.350342,423.586639 
	C697.063721,436.193573 698.344482,448.768494 699.402649,461.355225 
	C699.439697,461.796600 699.774536,462.212921 700.080566,462.880890 
	C702.353149,461.839722 702.989258,459.694763 703.977295,457.899750 
	C713.384155,440.809143 724.449524,425.063995 740.759827,413.782135 
	C757.566711,402.156860 776.271545,397.778961 796.601440,399.404419 
	C805.497986,400.115753 813.955750,401.816315 822.066589,405.696350 
	C826.090759,407.621460 826.633789,410.358978 826.166870,414.167725 
	C825.419006,420.267944 824.898865,426.396088 824.273743,432.973572 
z"/>
<path fill="#000000" opacity="1.000000" stroke="none" 
	d="
M249.963959,260.751404 
	C249.510773,236.654434 252.402756,213.419205 256.932281,190.448196 
	C260.301758,190.450668 260.686432,192.233215 261.127838,193.770050 
	C267.867828,217.235992 282.111267,234.617416 303.408020,246.431488 
	C308.505829,249.259415 313.194183,252.719498 316.451324,257.812836 
	C318.748444,261.404877 319.104584,264.531830 316.434662,268.304810 
	C304.538666,285.115662 289.193207,297.254608 269.710449,304.173126 
	C265.675751,305.605896 262.975220,304.620911 260.781708,301.235565 
	C256.847870,295.164246 253.874924,288.671326 252.731018,281.497711 
	C251.657379,274.764832 250.880569,267.984619 249.963959,260.751404 
M290.956970,247.517776 
	C287.306000,245.396317 283.655029,243.274841 280.004059,241.153381 
	C286.808960,250.495407 298.511597,254.409348 304.591003,265.202789 
	C306.402710,261.915741 304.932739,260.171295 303.888916,258.426392 
	C300.971802,253.550156 296.353180,250.628922 290.956970,247.517776 
z"/>
<path fill="#000000" opacity="1.000000" stroke="none" 
	d="
M520.744324,198.428162 
	C524.638123,222.370224 527.402710,245.955429 525.196472,269.857147 
	C524.159973,281.086334 521.661011,291.780853 515.446228,301.450714 
	C513.265686,304.843597 510.862122,305.795929 507.104980,304.733093 
	C494.065552,301.044739 483.414795,293.532990 474.056488,284.058716 
	C469.854706,279.804871 466.150726,275.062866 462.144928,270.610687 
	C459.203186,267.341156 459.275635,264.290497 462.001434,260.835815 
	C468.780457,252.244049 477.206879,245.432709 485.850220,238.956619 
	C500.952972,227.640762 509.409637,212.185425 514.731934,194.599609 
	C515.248291,192.893387 515.367126,190.911209 517.798279,190.451645 
	C520.621155,192.248657 519.861145,195.436386 520.744324,198.428162 
M487.032013,251.518860 
	C489.708984,249.023911 493.152222,247.290359 495.347687,243.611984 
	C485.271606,245.771606 468.949799,261.227417 470.444397,267.668884 
	C476.118439,262.423401 480.415131,256.232178 487.032013,251.518860 
z"/>
</svg>